# Blender v2.82 (sub 7) OBJ File: 'chair_combined.blend'
# www.blender.org
mtllib chair_combined.mtl
o chair
v -1.000000 0.846920 1.000000
v -1.000000 1.000000 1.000000
v -1.000000 0.846920 -1.000000
v -1.000000 1.000000 -1.000000
v 1.000000 0.846920 1.000000
v 1.000000 1.000000 1.000000
v 1.000000 0.846920 -1.000000
v 1.000000 1.000000 -1.000000
v 0.715484 -1.149619 1.000000
v 0.715484 0.850381 1.000000
v 0.715484 -1.149619 0.784810
v 0.715484 0.850381 0.784810
v 1.000000 -1.149619 1.000000
v 1.000000 0.850381 1.000000
v 1.000000 -1.149619 0.784810
v 1.000000 0.850381 0.784810
v -0.984498 -1.149620 1.000000
v -0.984498 0.850380 1.000000
v -0.984498 -1.149620 0.784810
v -0.984498 0.850380 0.784810
v -0.699983 -1.149620 1.000000
v -0.699983 0.850380 1.000000
v -0.699983 -1.149620 0.784810
v -0.699983 0.850380 0.784810
v -0.946413 -1.149620 -0.694589
v -0.946413 0.850380 -0.694589
v -0.946413 -1.149620 -0.909780
v -0.946413 0.850380 -0.909780
v -0.661897 -1.149620 -0.694589
v -0.661897 0.850380 -0.694589
v -0.661897 -1.149620 -0.909780
v -0.661897 0.850380 -0.909780
v 0.707650 -1.149620 -0.780200
v 0.707650 0.850380 -0.780200
v 0.707650 -1.149620 -0.995390
v 0.707650 0.850380 -0.995390
v 0.992165 -1.149620 -0.780200
v 0.992165 0.850380 -0.780200
v 0.992165 -1.149620 -0.995390
v 0.992165 0.850380 -0.995390
v 0.000000 2.690751 -0.700982
v 0.000000 2.656560 -1.001029
v 0.142584 2.694721 -0.701220
v 0.142584 2.660529 -1.001268
v 0.279688 2.706476 -0.701927
v 0.279688 2.672285 -1.001974
v 0.406044 2.725566 -0.703074
v 0.406044 2.691375 -1.003122
v 0.516796 2.751257 -0.704618
v 0.516796 2.717066 -1.004666
v 0.607687 2.782562 -0.706499
v 0.607687 2.748370 -1.006547
v 0.675226 2.818277 -0.708646
v 0.675226 2.784086 -1.008694
v 0.716816 2.857030 -0.710975
v 0.716816 2.822839 -1.011023
v 0.730859 2.897332 -0.713397
v 0.730859 2.863141 -1.013445
v 0.716816 2.937634 -0.715819
v 0.716816 2.903443 -1.015867
v 0.675226 2.976387 -0.718148
v 0.675226 2.942196 -1.018196
v 0.607687 3.012102 -0.720294
v 0.607687 2.977911 -1.020342
v 0.516796 3.043407 -0.722176
v 0.516796 3.009215 -1.022224
v 0.406044 3.069098 -0.723720
v 0.406044 3.034906 -1.023768
v 0.279688 3.088188 -0.724867
v 0.279688 3.053997 -1.024915
v 0.142583 3.099944 -0.725574
v 0.142583 3.065752 -1.025621
v -0.000000 3.103913 -0.725812
v -0.000000 3.069722 -1.025860
v -0.142584 3.099944 -0.725574
v -0.142584 3.065752 -1.025621
v -0.279688 3.088188 -0.724867
v -0.279688 3.053997 -1.024915
v -0.406044 3.069098 -0.723720
v -0.406044 3.034906 -1.023768
v -0.516796 3.043407 -0.722176
v -0.516796 3.009215 -1.022224
v -0.607688 3.012102 -0.720294
v -0.607688 2.977911 -1.020342
v -0.675226 2.976387 -0.718148
v -0.675226 2.942196 -1.018196
v -0.716816 2.937634 -0.715819
v -0.716816 2.903442 -1.015867
v -0.730859 2.897332 -0.713397
v -0.730859 2.863141 -1.013445
v -0.716816 2.857030 -0.710975
v -0.716816 2.822839 -1.011023
v -0.675226 2.818277 -0.708646
v -0.675226 2.784085 -1.008694
v -0.607687 2.782562 -0.706499
v -0.607687 2.748370 -1.006547
v -0.516795 2.751257 -0.704618
v -0.516795 2.717066 -1.004666
v -0.406043 2.725566 -0.703074
v -0.406043 2.691375 -1.003122
v -0.279687 2.706476 -0.701927
v -0.279687 2.672285 -1.001974
v -0.142582 2.694721 -0.701220
v -0.142582 2.660529 -1.001268
v -0.992619 0.999465 -0.759233
v -0.992619 2.999465 -0.759233
v -0.992619 0.999465 -0.974424
v -0.992619 2.999465 -0.974424
v -0.590604 0.999465 -0.759233
v -0.590604 2.999465 -0.759233
v -0.590604 0.999465 -0.974424
v -0.590604 2.999465 -0.974424
v -0.590604 0.999465 -0.759233
v -0.590604 2.999465 -0.759233
v -0.590604 0.999465 -0.974424
v -0.590604 2.999465 -0.974424
v 0.578841 0.999465 -0.759233
v 0.578841 2.999465 -0.759233
v 0.578841 0.999465 -0.974424
v 0.578841 2.999465 -0.974424
v 0.980857 0.999465 -0.759233
v 0.980857 2.999465 -0.759233
v 0.980857 0.999465 -0.974424
v 0.980857 2.999465 -0.974424
v 0.980857 0.999465 -0.759233
v 0.980857 2.999465 -0.759233
v 0.980857 0.999465 -0.974424
v 0.980857 2.999465 -0.974424
vt 0.375000 0.000000
vt 0.625000 0.000000
vt 0.625000 0.250000
vt 0.375000 0.250000
vt 0.625000 0.500000
vt 0.375000 0.500000
vt 0.625000 0.750000
vt 0.375000 0.750000
vt 0.625000 1.000000
vt 0.375000 1.000000
vt 0.000187 0.431820
vt 0.000187 0.000187
vt 0.431820 0.000187
vt 0.431820 0.431820
vt 0.875000 0.500000
vt 0.875000 0.750000
vt 0.892341 0.896080
vt 0.870245 0.433828
vt 0.933391 0.432194
vt 0.937025 0.862786
vt 0.999813 0.432194
vt 0.999813 0.899106
vt 0.914718 0.735808
vt 0.891617 0.411830
vt 0.940353 0.410095
vt 0.945473 0.728757
vt 0.999820 0.410095
vt 0.999820 0.828121
vt 0.959250 0.949711
vt 0.625000 0.500000
vt 0.875000 0.500000
vt 0.875000 0.750000
vt 0.625000 0.750000
vt 0.403025 0.819920
vt 0.999909 0.026500
vt 0.999909 0.719536
vt 0.067446 0.497266
vt 0.000091 0.793511
vt 0.596976 0.000091
vt 0.000091 0.100474
vt 0.932556 0.322744
vt 0.625000 0.500000
vt 0.875000 0.500000
vt 0.875000 0.750000
vt 0.625000 0.750000
vt 0.175356 0.788602
vt 0.434842 0.443676
vt 0.434842 0.744961
vt 0.029469 0.648334
vt 0.000187 0.777121
vt 0.259673 0.432194
vt 0.000187 0.475835
vt 0.405561 0.572463
vt 0.440747 0.615179
vt 0.659176 0.410095
vt 0.797602 0.543189
vt 0.579172 0.748273
vt 0.625000 0.500000
vt 0.875000 0.500000
vt 0.875000 0.750000
vt 0.625000 0.750000
vt 0.610385 0.788602
vt 0.869871 0.443676
vt 0.869871 0.744961
vt 0.464498 0.648334
vt 0.435216 0.777121
vt 0.694702 0.432194
vt 0.435216 0.475835
vt 0.840590 0.572463
vt 0.625000 0.500000
vt 0.875000 0.500000
vt 0.875000 0.750000
vt 0.625000 0.750000
vt 1.000000 0.500000
vt 1.000000 1.000000
vt 0.968750 1.000000
vt 0.968750 0.500000
vt 0.937500 1.000000
vt 0.937500 0.500000
vt 0.906250 1.000000
vt 0.906250 0.500000
vt 0.875000 1.000000
vt 0.875000 0.500000
vt 0.843750 1.000000
vt 0.843750 0.500000
vt 0.812500 1.000000
vt 0.812500 0.500000
vt 0.781250 1.000000
vt 0.781250 0.500000
vt 0.750000 1.000000
vt 0.750000 0.500000
vt 0.718750 1.000000
vt 0.718750 0.500000
vt 0.687500 1.000000
vt 0.687500 0.500000
vt 0.656250 1.000000
vt 0.656250 0.500000
vt 0.625000 1.000000
vt 0.625000 0.500000
vt 0.593750 1.000000
vt 0.593750 0.500000
vt 0.562500 1.000000
vt 0.562500 0.500000
vt 0.531250 1.000000
vt 0.531250 0.500000
vt 0.500000 1.000000
vt 0.500000 0.500000
vt 0.468750 1.000000
vt 0.468750 0.500000
vt 0.437500 1.000000
vt 0.437500 0.500000
vt 0.406250 1.000000
vt 0.406250 0.500000
vt 0.375000 1.000000
vt 0.375000 0.500000
vt 0.343750 1.000000
vt 0.343750 0.500000
vt 0.312500 1.000000
vt 0.312500 0.500000
vt 0.281250 1.000000
vt 0.281250 0.500000
vt 0.250000 1.000000
vt 0.250000 0.500000
vt 0.218750 1.000000
vt 0.218750 0.500000
vt 0.187500 1.000000
vt 0.187500 0.500000
vt 0.156250 1.000000
vt 0.156250 0.500000
vt 0.125000 1.000000
vt 0.125000 0.500000
vt 0.093750 1.000000
vt 0.093750 0.500000
vt 0.062500 1.000000
vt 0.062500 0.500000
vt 0.296822 0.485388
vt 0.250000 0.490000
vt 0.203179 0.485389
vt 0.158156 0.471731
vt 0.116663 0.449553
vt 0.080295 0.419706
vt 0.050447 0.383337
vt 0.028269 0.341844
vt 0.014612 0.296822
vt 0.010000 0.250000
vt 0.014611 0.203179
vt 0.028269 0.158156
vt 0.050447 0.116663
vt 0.080294 0.080294
vt 0.116663 0.050447
vt 0.158156 0.028269
vt 0.203178 0.014612
vt 0.250000 0.010000
vt 0.296822 0.014612
vt 0.341844 0.028269
vt 0.383337 0.050447
vt 0.419706 0.080294
vt 0.449553 0.116663
vt 0.471731 0.158156
vt 0.485388 0.203178
vt 0.490000 0.250000
vt 0.485388 0.296822
vt 0.471731 0.341844
vt 0.449553 0.383337
vt 0.419706 0.419706
vt 0.383337 0.449553
vt 0.341844 0.471731
vt 0.031250 1.000000
vt 0.031250 0.500000
vt 0.000000 1.000000
vt 0.000000 0.500000
vt 0.750000 0.490000
vt 0.796822 0.485388
vt 0.841844 0.471731
vt 0.883337 0.449553
vt 0.919706 0.419706
vt 0.949553 0.383337
vt 0.971731 0.341844
vt 0.985388 0.296822
vt 0.990000 0.250000
vt 0.985388 0.203178
vt 0.971731 0.158156
vt 0.949553 0.116663
vt 0.919706 0.080294
vt 0.883337 0.050447
vt 0.841844 0.028269
vt 0.796822 0.014612
vt 0.750000 0.010000
vt 0.703178 0.014612
vt 0.658156 0.028269
vt 0.616663 0.050447
vt 0.580294 0.080294
vt 0.550447 0.116663
vt 0.528269 0.158156
vt 0.514611 0.203179
vt 0.510000 0.250000
vt 0.514612 0.296822
vt 0.528269 0.341844
vt 0.550447 0.383337
vt 0.580295 0.419706
vt 0.616663 0.449553
vt 0.658156 0.471731
vt 0.703179 0.485389
vt 0.000106 0.375081
vt 0.353902 0.377816
vt 0.361411 0.412772
vt 0.000604 0.429882
vt 0.531420 0.452778
vt 0.011639 0.538295
vt 0.375000 0.500000
vt 0.625000 0.500000
vt 0.625000 0.750000
vt 0.375000 0.750000
vt 0.005200 0.269306
vt 0.531420 0.294650
vt 0.125000 0.500000
vt 0.125000 0.750000
vt 0.049961 0.999894
vt 0.049961 0.538507
vt 0.099604 0.538507
vt 0.099604 0.999894
vt 0.000106 0.105880
vt 0.353902 0.108615
vt 0.361411 0.143571
vt 0.000604 0.160681
vt 0.531420 0.183578
vt 0.011639 0.269095
vt 0.375000 0.500000
vt 0.625000 0.500000
vt 0.625000 0.750000
vt 0.375000 0.750000
vt 0.005200 0.000106
vt 0.531420 0.025450
vt 0.125000 0.500000
vt 0.125000 0.750000
vt 0.000106 0.999894
vt 0.000106 0.538507
vt 0.049749 0.538507
vt 0.049749 0.999894
vn -1.0000 0.0000 0.0000
vn 0.0000 0.0000 -1.0000
vn 1.0000 0.0000 0.0000
vn 0.0000 0.0000 1.0000
vn 0.0000 -1.0000 0.0000
vn 0.0000 1.0000 0.0000
vn 0.0278 -0.9932 0.1132
vn 0.0855 -0.9899 0.1128
vn 0.1494 -0.9824 0.1119
vn 0.2260 -0.9679 0.1103
vn 0.3258 -0.9394 0.1070
vn 0.4676 -0.8783 0.1001
vn 0.6819 -0.7268 0.0828
vn 0.9444 -0.3268 0.0372
vn 0.9444 0.3268 -0.0372
vn 0.6818 0.7268 -0.0828
vn 0.4676 0.8783 -0.1001
vn 0.3258 0.9394 -0.1070
vn 0.2261 0.9679 -0.1103
vn 0.1494 0.9824 -0.1119
vn 0.0855 0.9899 -0.1128
vn 0.0278 0.9932 -0.1132
vn -0.0278 0.9932 -0.1132
vn -0.0855 0.9899 -0.1128
vn -0.1494 0.9824 -0.1119
vn -0.2260 0.9679 -0.1103
vn -0.3258 0.9394 -0.1070
vn -0.4676 0.8783 -0.1001
vn -0.6819 0.7268 -0.0828
vn -0.9444 0.3268 -0.0372
vn -0.9444 -0.3268 0.0372
vn -0.6819 -0.7268 0.0828
vn -0.4676 -0.8783 0.1001
vn -0.3258 -0.9394 0.1070
vn -0.2260 -0.9679 0.1103
vn -0.1494 -0.9824 0.1119
vn 0.0000 -0.0600 -0.9982
vn -0.0855 -0.9899 0.1128
vn -0.0278 -0.9932 0.1132
vn 0.0000 0.0600 0.9982
g chair_chair_Material.001
usemtl Material.001
s off
f 1/1/1 2/2/1 4/3/1 3/4/1
f 3/4/2 4/3/2 8/5/2 7/6/2
f 7/6/3 8/5/3 6/7/3 5/8/3
f 5/8/4 6/7/4 2/9/4 1/10/4
f 3/11/5 7/12/5 5/13/5 1/14/5
f 8/5/6 4/15/6 2/16/6 6/7/6
f 9/17/1 10/18/1 12/19/1 11/20/1
f 11/20/2 12/19/2 16/21/2 15/22/2
f 15/23/3 16/24/3 14/25/3 13/26/3
f 13/26/4 14/25/4 10/27/4 9/28/4
f 11/20/5 15/22/5 13/29/5 9/17/5
f 16/30/6 12/31/6 10/32/6 14/33/6
f 17/34/1 18/35/1 20/36/1 19/37/1
f 19/37/2 20/36/2 24/38/2 23/39/2
f 23/39/3 24/38/3 22/40/3 21/41/3
f 21/41/4 22/40/4 18/35/4 17/34/4
f 19/37/5 23/39/5 21/41/5 17/34/5
f 24/42/6 20/43/6 18/44/6 22/45/6
f 25/46/1 26/47/1 28/48/1 27/49/1
f 27/49/2 28/48/2 32/50/2 31/51/2
f 31/51/3 32/50/3 30/52/3 29/53/3
f 29/53/4 30/52/4 26/47/4 25/46/4
f 27/54/5 31/55/5 29/56/5 25/57/5
f 32/58/6 28/59/6 26/60/6 30/61/6
f 33/62/1 34/63/1 36/64/1 35/65/1
f 35/65/2 36/64/2 40/66/2 39/67/2
f 39/67/3 40/66/3 38/68/3 37/69/3
f 37/69/4 38/68/4 34/63/4 33/62/4
f 35/65/5 39/67/5 37/69/5 33/62/5
f 40/70/6 36/71/6 34/72/6 38/73/6
f 41/74/7 42/75/7 44/76/7 43/77/7
f 43/77/8 44/76/8 46/78/8 45/79/8
f 45/79/9 46/78/9 48/80/9 47/81/9
f 47/81/10 48/80/10 50/82/10 49/83/10
f 49/83/11 50/82/11 52/84/11 51/85/11
f 51/85/12 52/84/12 54/86/12 53/87/12
f 53/87/13 54/86/13 56/88/13 55/89/13
f 55/89/14 56/88/14 58/90/14 57/91/14
f 57/91/15 58/90/15 60/92/15 59/93/15
f 59/93/16 60/92/16 62/94/16 61/95/16
f 61/95/17 62/94/17 64/96/17 63/97/17
f 63/97/18 64/96/18 66/98/18 65/99/18
f 65/99/19 66/98/19 68/100/19 67/101/19
f 67/101/20 68/100/20 70/102/20 69/103/20
f 69/103/21 70/102/21 72/104/21 71/105/21
f 71/105/22 72/104/22 74/106/22 73/107/22
f 73/107/23 74/106/23 76/108/23 75/109/23
f 75/109/24 76/108/24 78/110/24 77/111/24
f 77/111/25 78/110/25 80/112/25 79/113/25
f 79/113/26 80/112/26 82/114/26 81/115/26
f 81/115/27 82/114/27 84/116/27 83/117/27
f 83/117/28 84/116/28 86/118/28 85/119/28
f 85/119/29 86/118/29 88/120/29 87/121/29
f 87/121/30 88/120/30 90/122/30 89/123/30
f 89/123/31 90/122/31 92/124/31 91/125/31
f 91/125/32 92/124/32 94/126/32 93/127/32
f 93/127/33 94/126/33 96/128/33 95/129/33
f 95/129/34 96/128/34 98/130/34 97/131/34
f 97/131/35 98/130/35 100/132/35 99/133/35
f 99/133/36 100/132/36 102/134/36 101/135/36
f 44/136/37 42/137/37 104/138/37 102/139/37 100/140/37 98/141/37 96/142/37 94/143/37 92/144/37 90/145/37 88/146/37 86/147/37 84/148/37 82/149/37 80/150/37 78/151/37 76/152/37 74/153/37 72/154/37 70/155/37 68/156/37 66/157/37 64/158/37 62/159/37 60/160/37 58/161/37 56/162/37 54/163/37 52/164/37 50/165/37 48/166/37 46/167/37
f 101/135/38 102/134/38 104/168/38 103/169/38
f 103/169/39 104/168/39 42/170/39 41/171/39
f 41/172/40 43/173/40 45/174/40 47/175/40 49/176/40 51/177/40 53/178/40 55/179/40 57/180/40 59/181/40 61/182/40 63/183/40 65/184/40 67/185/40 69/186/40 71/187/40 73/188/40 75/189/40 77/190/40 79/191/40 81/192/40 83/193/40 85/194/40 87/195/40 89/196/40 91/197/40 93/198/40 95/199/40 97/200/40 99/201/40 101/202/40 103/203/40
f 105/204/1 106/205/1 108/206/1 107/207/1
f 107/207/2 108/206/2 112/208/2 111/209/2
f 111/210/3 112/211/3 110/212/3 109/213/3
f 109/214/4 110/215/4 106/205/4 105/204/4
f 107/216/5 111/210/5 109/213/5 105/217/5
f 112/208/6 108/206/6 106/205/6 110/215/6
f 115/218/3 116/219/3 114/220/3 113/221/3
f 117/222/1 118/223/1 120/224/1 119/225/1
f 119/225/2 120/224/2 124/226/2 123/227/2
f 123/228/3 124/229/3 122/230/3 121/231/3
f 121/232/4 122/233/4 118/223/4 117/222/4
f 119/234/5 123/228/5 121/231/5 117/235/5
f 124/226/6 120/224/6 118/223/6 122/233/6
f 127/236/3 128/237/3 126/238/3 125/239/3
